<svg width="560" height="150" viewBox="0 0 560 150" fill="none" xmlns="http://www.w3.org/2000/svg"><rect width="560" height="150" rx="26" fill="white"/><g transform="translate(28 24)"><rect width="72" height="72" rx="18" fill="#F9C80E"/><rect x="34" y="34" width="72" height="72" rx="18" fill="#0057B8"/><path d="M24 50C24 32 37 20 55 20C68 20 79 27 84 38L68 45C65 39 60 36 54 36C45 36 39 42 39 50C39 59 45 65 54 65C61 65 66 61 69 55L85 62C80 74 69 81 54 81C36 81 24 68 24 50Z" fill="#0B2F5B"/><path d="M64 80V44H80V57H96V44H112V80H96V69H80V80H64Z" fill="white"/></g><text x="160" y="66" font-family="Arial" font-size="46" font-weight="800" fill="#0057B8">ch</text><text x="160" y="107" font-family="Arial" font-size="36" font-weight="700" fill="#6B7280">Contestado</text><text x="162" y="128" font-family="Arial" font-size="13" font-weight="700" fill="#0B2F5B" letter-spacing="2">SOFTWARE DE GESTÃO</text></svg>