<?xml version="1.0" standalone="no"?>
<!DOCTYPE svg PUBLIC "-//W3C//DTD SVG 20010904//EN"
 "http://www.w3.org/TR/2001/REC-SVG-20010904/DTD/svg10.dtd">
<svg version="1.0" xmlns="http://www.w3.org/2000/svg"
 width="364.000000pt" height="160.000000pt" viewBox="0 0 364.000000 160.000000"
 preserveAspectRatio="xMidYMid meet">

<g transform="translate(0.000000,160.000000) scale(0.100000,-0.100000)"
fill="#000000" stroke="none">
<path d="M2726 1358 c-9 -29 -54 -190 -101 -358 -47 -168 -104 -369 -126 -448
-23 -79 -38 -146 -35 -149 3 -3 90 -8 194 -11 l189 -5 21 69 c11 38 35 121 52
184 18 63 40 131 50 150 36 69 128 93 175 45 14 -13 25 -32 25 -42 0 -10 -24
-105 -54 -211 l-53 -192 86 0 c47 0 136 -3 196 -6 l111 -7 77 274 c87 310 99
366 90 412 -22 115 -105 163 -272 155 -136 -7 -215 -44 -281 -133 -18 -25 -35
-43 -38 -41 -2 3 10 47 26 98 35 105 72 238 72 256 0 9 -51 12 -195 12 l-194
0 -15 -52z"/>
<path d="M1910 1230 c-152 -32 -258 -149 -324 -355 -75 -236 -55 -385 61 -447
74 -39 136 -50 283 -49 120 0 382 29 396 44 6 5 72 240 69 244 0 2 -28 -2 -61
-7 -86 -15 -283 -15 -326 -1 -67 22 -73 96 -16 181 47 69 70 75 284 74 l192 0
36 127 c20 70 36 134 36 141 0 10 -29 20 -92 33 -106 21 -461 31 -538 15z"/>
<path d="M1305 999 c-22 -4 -131 -8 -242 -8 l-201 -1 -11 -32 c-5 -18 -26 -94
-46 -168 -21 -74 -47 -172 -60 -218 l-22 -84 21 7 c11 4 125 9 251 12 l230 5
64 237 c35 130 66 242 69 249 5 13 4 13 -53 1z m-155 -171 c0 -6 -9 -47 -21
-90 l-21 -78 -89 0 c-49 0 -89 3 -89 7 0 10 41 157 47 166 8 13 173 8 173 -5z"/>
<path d="M230 703 c-5 -21 -36 -133 -68 -248 l-58 -210 246 3 c135 2 248 7
251 10 7 8 129 452 129 470 0 9 -66 12 -245 12 l-244 0 -11 -37z"/>
<path d="M3337 229 c-6 -48 -13 -57 -29 -41 -7 7 -27 12 -46 12 -70 0 -131
-102 -100 -168 11 -23 20 -27 61 -30 27 -2 55 2 63 9 10 8 14 8 14 0 0 -6 13
-11 28 -11 29 0 29 0 46 108 10 59 20 119 23 135 5 25 3 27 -24 27 -28 0 -31
-3 -36 -41z m-29 -121 c2 -28 -2 -40 -20 -52 -28 -20 -42 -20 -62 0 -33 33 5
98 54 92 21 -3 25 -9 28 -40z"/>
<path d="M1475 250 c-17 -5 -46 -25 -65 -45 -29 -30 -34 -43 -38 -92 -3 -48 0
-63 18 -85 19 -25 28 -28 85 -28 60 0 66 2 102 37 l38 38 -33 3 c-19 2 -38 -3
-48 -12 -18 -19 -75 -21 -92 -4 -22 22 -14 86 13 113 27 28 76 33 95 10 7 -8
27 -15 45 -15 28 0 32 3 28 19 -13 51 -85 80 -148 61z"/>
<path d="M2197 243 c-4 -3 -7 -15 -7 -25 0 -10 -6 -18 -14 -18 -7 0 -16 -11
-18 -25 -3 -15 -1 -25 7 -25 9 0 9 -15 2 -60 -12 -74 -1 -92 52 -88 41 3 56
32 21 41 -18 5 -20 10 -15 44 10 57 13 63 34 63 12 0 20 9 23 25 4 19 1 25
-13 25 -14 0 -19 7 -19 25 0 20 -5 25 -23 25 -13 0 -27 -3 -30 -7z"/>
<path d="M2790 225 c0 -16 -6 -25 -15 -25 -8 0 -15 -4 -15 -9 0 -5 -3 -16 -6
-25 -4 -10 -1 -16 8 -16 12 0 13 -10 5 -60 -12 -71 -1 -90 48 -90 24 0 34 5
38 20 3 13 0 20 -8 20 -22 0 -27 17 -19 65 5 38 10 45 29 45 16 0 24 7 27 25
4 19 1 25 -13 25 -14 0 -19 7 -19 25 0 21 -5 25 -30 25 -25 0 -30 -4 -30 -25z"/>
<path d="M1708 184 c-53 -28 -75 -115 -42 -162 13 -18 24 -22 72 -22 83 1 122
38 122 119 0 31 -6 44 -26 60 -31 25 -87 27 -126 5z m90 -72 c5 -54 -44 -92
-76 -60 -33 33 1 101 47 96 21 -2 27 -9 29 -36z"/>
<path d="M1907 112 c-22 -114 -22 -112 12 -112 27 0 29 3 35 52 9 67 29 98 62
98 33 0 39 -19 27 -91 l-10 -59 28 0 c30 0 34 9 45 103 6 47 4 61 -11 77 -21
23 -74 27 -94 8 -11 -10 -14 -10 -18 0 -3 6 -17 12 -32 12 -26 0 -28 -3 -44
-88z"/>
<path d="M2354 181 c-50 -30 -70 -114 -38 -159 21 -31 109 -32 148 -1 14 11
26 25 26 30 0 12 -57 12 -65 -1 -10 -16 -55 -12 -62 5 -8 23 -1 26 68 30 35 1
67 3 72 4 4 1 7 15 7 31 0 70 -87 103 -156 61z m77 -31 c36 -20 23 -40 -26
-40 -42 0 -45 2 -35 19 8 16 21 26 38 30 2 1 12 -4 23 -9z"/>
<path d="M2566 179 c-45 -36 -30 -71 46 -102 27 -12 36 -20 32 -31 -8 -20 -38
-21 -54 -1 -18 22 -60 20 -60 -3 0 -31 22 -42 80 -42 69 0 93 15 88 55 -2 25
-12 34 -50 53 -27 12 -48 27 -48 33 0 16 31 23 51 11 23 -15 59 -16 59 -2 0 6
-9 19 -20 30 -27 27 -89 27 -124 -1z"/>
<path d="M2952 184 c-31 -21 -52 -66 -52 -109 0 -60 14 -75 68 -75 27 0 53 5
60 12 9 9 12 9 12 0 0 -7 13 -12 29 -12 27 0 29 3 39 58 27 146 27 142 -7 142
-22 0 -31 -5 -31 -17 0 -15 -1 -15 -18 0 -23 21 -71 22 -100 1z m102 -57 c13
-20 -6 -62 -36 -81 -42 -26 -77 46 -42 85 21 24 62 22 78 -4z"/>
<path d="M3456 169 c-44 -38 -56 -87 -32 -135 15 -33 17 -34 74 -34 70 0 104
21 122 76 24 71 -12 124 -85 124 -35 0 -51 -6 -79 -31z m108 -42 c22 -35 -37
-102 -71 -81 -42 26 -15 108 34 102 14 -2 31 -11 37 -21z"/>
</g>
</svg>
